<?xml version='1.0' encoding='UTF-8' standalone='no'?>
<svg width="418pt" xmlns:xlink="http://www.w3.org/1999/xlink" xmlns="http://www.w3.org/2000/svg" viewBox="0 0 418 314" height="314pt">
 <title>Figure 1</title>
 <desc>
Creator: GL2PS 1.4.2, (C) 1999-2020 C. Geuzaine
For: Octave
CreationDate: Tue Oct  4 22:25:12 2022
</desc>
 <defs/>
 <polygon fill="#ffffff" points="0,0 418,0 418,314 0,314"/>
 <g>
  <polygon fill="#ffffff" points="0,314 418,314 418,0 0,0" shape-rendering="crispEdges"/>
  <clipPath id="cp00418314">
   <polygon points="0,314 418,314 418,0 0,0"/>
  </clipPath>
  <g clip-path="url(#cp00418314)">
   <polygon fill="#ffffff" points="54.4343,279.499 378.946,279.499 378.946,23.5533 54.4343,23.5533" shape-rendering="crispEdges"/>
   <polyline stroke-linecap="butt" stroke-width="0.5" fill="none" stroke="#262626" points="54.4343,151.526 378.946,151.526" stroke-linejoin="miter"/>
   <polyline stroke-linecap="butt" stroke-width="0.5" fill="none" stroke="#262626" points="54.4343,151.526 54.4343,148.282" stroke-linejoin="miter"/>
   <polyline stroke-linecap="butt" stroke-width="0.5" fill="none" stroke="#262626" points="108.52,151.526 108.52,148.282" stroke-linejoin="miter"/>
   <polyline stroke-linecap="butt" stroke-width="0.5" fill="none" stroke="#262626" points="162.605,151.526 162.605,148.282" stroke-linejoin="miter"/>
   <polyline stroke-linecap="butt" stroke-width="0.5" fill="none" stroke="#262626" points="216.69,151.526 216.69,148.282" stroke-linejoin="miter"/>
   <polyline stroke-linecap="butt" stroke-width="0.5" fill="none" stroke="#262626" points="270.776,151.526 270.776,148.282" stroke-linejoin="miter"/>
   <polyline stroke-linecap="butt" stroke-width="0.5" fill="none" stroke="#262626" points="324.861,151.526 324.861,148.282" stroke-linejoin="miter"/>
   <polyline stroke-linecap="butt" stroke-width="0.5" fill="none" stroke="#262626" points="378.946,151.526 378.946,148.282" stroke-linejoin="miter"/>
   <g font-weight="normal" font-family="FreeSans" font-size="10" font-style="normal" xml:space="preserve" transform="translate(104.02,167.025) rotate(-0,4.5,-8)">
    <text x="0 3 " y="-0" fill="rgb(38,38,38)">-1</text>
   </g>
   <g font-weight="normal" font-family="FreeSans" font-size="10" font-style="normal" xml:space="preserve" transform="translate(213.69,167.025) rotate(-0,3,-8)">
    <text x="0 " y="-0" fill="rgb(38,38,38)">1</text>
   </g>
   <g font-weight="normal" font-family="FreeSans" font-size="10" font-style="normal" xml:space="preserve" transform="translate(267.776,167.025) rotate(-0,3,-8)">
    <text x="0 " y="-0" fill="rgb(38,38,38)">2</text>
   </g>
   <g font-weight="normal" font-family="FreeSans" font-size="10" font-style="normal" xml:space="preserve" transform="translate(321.861,167.025) rotate(-0,3,-8)">
    <text x="0 " y="-0" fill="rgb(38,38,38)">3</text>
   </g>
   <polyline stroke-linecap="butt" stroke-width="0.5" fill="none" stroke="#262626" points="162.605,279.499 162.605,23.5533" stroke-linejoin="miter"/>
   <polyline stroke-linecap="butt" stroke-width="0.5" fill="none" stroke="#262626" points="162.605,279.499 165.845,279.499" stroke-linejoin="miter"/>
   <polyline stroke-linecap="butt" stroke-width="0.5" fill="none" stroke="#262626" points="162.605,236.842 165.845,236.842" stroke-linejoin="miter"/>
   <polyline stroke-linecap="butt" stroke-width="0.5" fill="none" stroke="#262626" points="162.605,194.184 165.845,194.184" stroke-linejoin="miter"/>
   <polyline stroke-linecap="butt" stroke-width="0.5" fill="none" stroke="#262626" points="162.605,151.526 165.845,151.526" stroke-linejoin="miter"/>
   <polyline stroke-linecap="butt" stroke-width="0.5" fill="none" stroke="#262626" points="162.605,108.869 165.845,108.869" stroke-linejoin="miter"/>
   <polyline stroke-linecap="butt" stroke-width="0.5" fill="none" stroke="#262626" points="162.605,66.2109 165.845,66.2109" stroke-linejoin="miter"/>
   <polyline stroke-linecap="butt" stroke-width="0.5" fill="none" stroke="#262626" points="162.605,23.5533 165.845,23.5533" stroke-linejoin="miter"/>
   <g font-weight="normal" font-family="FreeSans" font-size="10" font-style="normal" xml:space="preserve" transform="translate(148.613,240.842) rotate(-0,9,-4)">
    <text x="0 3 " y="-0" fill="rgb(38,38,38)">-2</text>
   </g>
   <g font-weight="normal" font-family="FreeSans" font-size="10" font-style="normal" xml:space="preserve" transform="translate(148.613,198.184) rotate(-0,9,-4)">
    <text x="0 3 " y="-0" fill="rgb(38,38,38)">-1</text>
   </g>
   <g font-weight="normal" font-family="FreeSans" font-size="10" font-style="normal" xml:space="preserve" transform="translate(151.613,112.869) rotate(-0,6,-4)">
    <text x="0 " y="-0" fill="rgb(38,38,38)">1</text>
   </g>
   <g font-weight="normal" font-family="FreeSans" font-size="10" font-style="normal" xml:space="preserve" transform="translate(151.613,70.2109) rotate(-0,6,-4)">
    <text x="0 " y="-0" fill="rgb(38,38,38)">2</text>
   </g>
   <polyline stroke-linecap="square" stroke-width="0.5" stroke-dasharray="16,0" fill="none" stroke="#262626" points="54.4343,279.499 378.946,279.499" stroke-linejoin="miter"/>
   <polyline stroke-linecap="square" stroke-width="0.5" stroke-dasharray="16,0" fill="none" stroke="#262626" points="54.4343,23.5533 378.946,23.5533" stroke-linejoin="miter"/>
   <polyline stroke-linecap="square" stroke-width="0.5" stroke-dasharray="16,0" fill="none" stroke="#262626" points="54.4343,279.499 54.4343,23.5533" stroke-linejoin="miter"/>
   <polyline stroke-linecap="square" stroke-width="0.5" stroke-dasharray="16,0" fill="none" stroke="#262626" points="378.946,279.499 378.946,23.5533" stroke-linejoin="miter"/>
   <g font-weight="normal" font-family="FreeSans" font-size="11" font-style="normal" xml:space="preserve" transform="translate(194.69,311.998) rotate(-0,22,-12)">
    <text x="0 8 14 20 22 25 31 37 41 " y="-3" fill="rgb(38,38,38)">Real part</text>
   </g>
   <g font-weight="normal" font-family="FreeSans" font-size="11" font-style="normal" xml:space="preserve" transform="translate(0.941798,151.526) rotate(-90,34.5,0)">
    <text x="0 3 12 18 24 26 32 38 42 47 50 56 62 66 " y="-3" fill="rgb(38,38,38)">Imaginary part</text>
   </g>
   <g font-weight="bold" font-family="FreeSans" font-size="11" font-style="normal" xml:space="preserve" transform="translate(188.69,13.5533) rotate(-0,28,0)">
    <text x="0 6 10 16 19 25 28 34 37 43 49 52 " y="-3" fill="rgb(0,0,0)">ζ(0.5 + 50i)</text>
   </g>
   <polyline stroke-linecap="butt" stroke-width="0.5" fill="none" stroke="#0071bc" points="83.6212,151.526 87.7999,167.633 98.602,180.326 112.359,188.208 125.974,191.838 137.872,192.528 147.647,191.48 155.457,189.529 161.642,187.179 166.546,184.714 170.46,182.282 173.614,179.955 176.184,177.765 178.302,175.719 180.067,173.815 181.556,172.042 182.825,170.391 183.919,168.849 184.872,167.405 185.713,166.048 186.46,164.771 187.133,163.563 187.744,162.417 188.306,161.327 188.826,160.287 189.313,159.292 189.773,158.337 190.212,157.417 190.633,156.531 191.042,155.673 191.442,154.843 191.835,154.036 192.225,153.252 192.613,152.488 193.003,151.742 193.395,151.013 193.792,150.3 194.195,149.602 194.606,148.918 195.027,148.246 195.458,147.587 195.901,146.94 196.358,146.304 196.829,145.68 197.316,145.066 197.82,144.463 198.341,143.871 198.881,143.29 199.441,142.721 200.022,142.163 200.624,141.617 201.249,141.083 201.896,140.562 202.568,140.056 203.264,139.563 203.986,139.086 204.734,138.626 205.507,138.182 206.308,137.758 207.136,137.353 207.991,136.968 208.873,136.607 209.783,136.268 210.72,135.956 211.684,135.67 212.675,135.412 213.692,135.185 214.735,134.99 215.802,134.829 216.893,134.704 218.007,134.616 219.141,134.568 220.295,134.561 221.467,134.598 222.654,134.68 223.854,134.81 225.065,134.989 226.283,135.219 227.507,135.502 228.731,135.84 229.953,136.234 231.17,136.687 232.376,137.198 233.567,137.77 234.738,138.404 235.886,139.1 237.004,139.859 238.087,140.682 239.129,141.568 240.124,142.518 241.067,143.531 241.95,144.607 242.769,145.743 243.515,146.939 244.183,148.192 244.765,149.5 245.255,150.861 245.647,152.271 245.933,153.727 246.107,155.223 246.163,156.755 246.094,158.319 245.896,159.908 245.561,161.515 245.086,163.135 244.466,164.759 243.696,166.38 242.774,167.99 241.696,169.579 240.461,171.139 239.067,172.66 237.514,174.132 235.803,175.545 233.936,176.888 231.914,178.151 229.743,179.322 227.428,180.391 224.974,181.347 222.39,182.179 219.684,182.877 216.867,183.43 213.95,183.828 210.946,184.062 207.87,184.122 204.737,184.001 201.564,183.692 198.369,183.187 195.172,182.481 191.992,181.57 188.851,180.451 185.771,179.122 182.775,177.582 179.887,175.834 177.129,173.879 174.527,171.723 172.105,169.371 169.886,166.832 167.894,164.116 166.153,161.234 164.684,158.2 163.51,155.031 162.649,151.742 162.121,148.354 161.942,144.887 162.126,141.364 162.686,137.81 163.632,134.248 164.969,130.706 166.703,127.212 168.835,123.795 171.36,120.482 174.274,117.304 177.567,114.291 181.226,111.471 185.232,108.873 189.566,106.526 194.202,104.457 199.113,102.691 204.265,101.252 209.624,100.161 215.151,99.4396 220.804,99.1028 226.538,99.1649 232.307,99.6364 238.062,100.524 243.751,101.832 249.325,103.559 254.73,105.7 259.913,108.246 264.824,111.184 269.411,114.498 273.624,118.163 277.418,122.156 280.747,126.444 283.572,130.995 285.854,135.769 287.564,140.727 288.673,145.822 289.161,151.009 289.012,156.238 288.218,161.458 286.777,166.616 284.694,171.659 281.983,176.536 278.663,181.193 274.762,185.58 270.314,189.648 265.36,193.35 259.95,196.643 254.137,199.49 247.984,201.854 241.555,203.707 234.92,205.025 228.155,205.791 221.336,205.994 214.542,205.63 207.853,204.702 201.348,203.221 195.107,201.203 189.205,198.675 183.715,195.669 178.705,192.223 174.238,188.383 170.368,184.2 167.145,179.731 164.607,175.038 162.785,170.187 161.698,165.244 161.356,160.282 161.757,155.37 162.889,150.581 164.727,145.985 167.237,141.649 170.372,137.637 174.076,134.01 178.284,130.821 182.919,128.119 187.9,125.942 193.138,124.323 198.538,123.285 204.001,122.84 209.428,122.99 214.717,123.728 219.77,125.035 224.488,126.884 228.781,129.234 232.563,132.037 235.757,135.235 238.295,138.762 240.122,142.545 241.193,146.503 241.48,150.553 240.967,154.606 239.654,158.572 237.556,162.363 234.705,165.888 231.149,169.063 226.95,171.807 222.185,174.045 216.943,175.714 211.326,176.755 205.448,177.123 199.429,176.787 193.397,175.725 187.483,173.932 181.819,171.417 176.539,168.203 171.771,164.327 167.638,159.843 164.253,154.816 161.72,149.327 160.128,143.464 159.549,137.331 160.04,131.037 161.638,124.697 164.358,118.435 168.195,112.371 173.122,106.631 179.09,101.335 186.027,96.5984 193.842,92.53 202.424,89.2282 211.643,86.78 221.355,85.2577 231.401,84.7183 241.614,85.2012 251.817,86.7274 261.83,89.2982 271.475,92.8954 280.573,97.4807 288.955,102.996 296.461,109.365 302.945,116.493 308.279,124.269 312.354,132.57 315.084,141.258 316.409,150.189 316.292,159.211 314.726,168.168 311.732,176.906 307.359,185.272 301.682,193.121 294.804,200.318 286.85,206.738 277.967,212.273 268.322,216.833 258.096,220.347 247.481,222.767 236.678,224.066 225.889,224.241 215.314,223.313 205.149,221.326 195.575,218.346 186.763,214.462 178.862,209.778 171.998,204.418 166.274,198.517 161.762,192.222 158.507,185.685 156.522,179.063 155.788,172.51 156.256,166.177 157.848,160.206 160.458,154.725 163.957,149.848 168.191,145.671 172.993,142.267 178.18,139.687 183.564,137.958 188.953,137.08 194.157,137.029 198.997,137.755 203.303,139.185 206.927,141.225 209.742,143.76 211.647,146.66 212.572,149.783 212.479,152.978 211.363,156.091 209.254,158.968 206.217,161.46 202.349,163.428 197.777,164.748 192.657,165.312 187.166,165.037 181.503,163.862 175.877,161.755 170.505,158.713 165.606,154.763 161.392,149.961 158.063,144.392 155.801,138.171 154.763,131.436 155.076,124.347 156.835,117.082 160.092,109.83 164.863,102.791 171.119,96.1661 178.787,90.1519 187.753,84.9372 197.863,80.6956 208.925,77.5806 220.715,75.7206 232.98,75.2146 245.449,76.1287 257.835,78.4932 269.844,82.3011 281.186,87.507 291.58,94.028 300.763,101.744 308.498,110.503 314.58,120.12 318.845,130.387 321.172,141.073 321.49,151.934 319.777,162.718 316.066,173.171 310.443,183.048 303.044,192.114 294.054,200.155 283.7,206.983 272.247,212.442 259.99,216.412 247.246,218.814 234.346,219.611 221.623,218.809 209.407,216.461 198.009,212.661 187.718,207.543 178.789,201.28 171.437,194.073 165.828,186.152 162.078,177.764 160.245,169.168 160.332,160.628 162.281,152.402 165.981,144.736 171.267,137.857 177.928,131.966 185.711,127.229 194.33,123.775 203.477,121.69 212.83,121.017 222.064,121.752 230.859,123.844 238.915,127.199 245.959,131.684 251.753,137.126 256.103,143.324 258.868,150.053 259.957,157.072 259.341,164.131 257.049,170.983 253.165,177.386 247.829,183.121 241.23,187.988 233.6,191.823 225.205,194.499 216.336,195.928 207.298,196.071 198.399,194.931 189.941,192.561 182.205,189.055 175.446,184.548 169.879,179.212 165.673,173.247 162.944,166.875 161.752,160.33 162.099,153.851 163.924,147.675 167.112,142.021 171.494,137.088 176.852,133.045 182.933,130.022 189.452,128.109 196.109,127.348 202.596,127.733 208.611,129.208 213.871,131.672 218.124,134.977 221.158,138.938 222.81,143.337 222.976,147.933 221.617,152.469 218.757,156.684 214.49,160.324 208.973,163.148 202.427,164.944 195.124,165.534 187.381,164.786 179.549,162.614 172.001,158.992 165.115,153.949 159.263,147.575 154.794,140.016 152.021,131.474 151.209,122.197 152.559,112.474 156.206,102.626 162.204,92.9947 170.525,83.9276 181.059,75.77 193.612,68.8497 207.913,63.4656 223.619,59.8761 240.33,58.2886 257.596,58.851 274.935,61.6452 291.848,66.6828 307.838,73.9026 322.422,83.1723 335.156,94.291 345.643,106.995 353.552,120.968 358.629,135.848 360.705,151.24 359.706,166.734 355.653,181.91 348.663,196.363 338.944,209.707 326.79,221.596 312.569,231.731 296.71,239.873 279.69,245.849 262.013,249.561 244.194,250.984 226.741,250.171 210.137,247.244 194.82,242.397 181.172,235.88 169.503,227.992 160.04,219.07 152.924,209.473 148.201,199.57 145.829,189.722 145.674,180.273 147.524,171.533 151.099,163.767 156.058,157.185 162.023,151.936 168.592,148.102 175.355,145.696 181.917,144.665 187.911,144.889 193.017,146.196 196.974,148.361 199.59,151.126 200.755,154.21 200.44,157.317 198.697,160.162 195.662,162.472 191.543,164.011 186.609,164.581 181.18,164.041 175.611,162.309 170.272,159.366 165.531,155.262 161.738,150.11 159.204,144.086 158.186,137.415" stroke-linejoin="round"/>
  </g>
 </g>
</svg>
